<?xml version="1.0" encoding="windows-1252"?>
<!-- Generator: Adobe Illustrator 18.1.1, SVG Export Plug-In . SVG Version: 6.00 Build 0)  -->
<svg version="1.1" id="Layer_1" xmlns="http://www.w3.org/2000/svg" xmlns:xlink="http://www.w3.org/1999/xlink" x="0px" y="0px" viewBox="0 0 202.3 67" enable-background="new 0 0 202.3 67" xml:space="preserve">
<g>
	<g>
		<g>
			<g>
				<path fill="#FFFFFF" d="M25.7,13.3v14.5h-4.1V13.3h-4.3V9.8h12.8v3.5H25.7z"/>
				<path fill="#FFFFFF" d="M47.9,15.3c0,1.5-1.1,2.5-2.9,2.5c-0.4,0-0.8,0-1-0.1v-4.6c0.2,0,0.7-0.1,1.1-0.1      C47,13.1,47.9,13.9,47.9,15.3z M53.4,27.8L49.6,22c-0.5-0.7-0.9-1.3-1.4-2c2.4-0.6,4-2.6,4-5c0-3.8-2.6-5.3-6.8-5.3      c-2.2,0-4.1,0-5.6,0.1v18h4.2v-7h0.2l4.3,7H53.4z"/>
				<path fill="#FFFFFF" d="M63.2,27.8v-18h4.2v18H63.2z"/>
				<path fill="#FFFFFF" d="M137.5,27.8l-1.1-7.4c-0.2-1.5-0.4-2.8-0.5-4.2h-0.1c-0.3,1.3-0.6,2.7-1,4.2l-2.2,7.4h-4l-2.1-6.7      c-0.5-1.5-0.9-3.3-1.2-4.9h0c-0.2,1.7-0.3,3.1-0.5,4.6l-0.9,7h-4.2l2.9-18h4.8l2.5,7.9c0.4,1.3,0.7,2.5,1,3.9h0.1      c0.3-1.4,0.6-2.6,1-4l2.6-7.9h4.7l2.9,18H137.5z"/>
				<path fill="#FFFFFF" d="M150.3,27.8v-18h10.1v3.5h-6v3.6h5.7v3.4h-5.7v4h6v3.6H150.3z"/>
				<path fill="#FFFFFF" d="M178,13.3v14.5h-4.1V13.3h-4.3V9.8h12.8v3.5H178z"/>
			</g>
			<g>
				<g>
					<circle fill="#D14929" cx="94.3" cy="18.9" r="18.9"/>
				</g>
				<path fill="#FFFFFF" d="M104.3,13.6c-0.4-5.1-4.7-9-9.9-9c-5.1,0-9.4,3.9-9.8,8.9c-2.6,1.9-4,4.9-4,7.9c0,1.7,0.4,3.4,1.3,4.9      c1.8,3.2,5.2,5,8.6,4.9c1.3,0,2.6-0.3,3.9-0.8c1.3,0.6,2.6,0.8,3.9,0.8c0,0,0,0,0,0c3.4,0,6.7-1.8,8.6-4.9      c0.9-1.6,1.3-3.3,1.3-4.9C108.2,18.5,106.8,15.6,104.3,13.6z M94.4,7.5c3,0,5.5,1.9,6.5,4.5c-0.9-0.2-1.8-0.4-2.7-0.4      c-3.4,0-6.7,1.8-8.6,4.9c-0.4,0.7-0.7,1.4-0.9,2.1c-0.9-1.2-1.4-2.6-1.4-4.2C87.4,10.6,90.5,7.5,94.4,7.5z M96.5,18      c0.5,0.9,0.8,1.9,0.9,2.8c-0.9,0.4-1.9,0.7-3,0.7c-1.1,0-2.2-0.3-3.1-0.7c0.1-1,0.4-1.9,0.9-2.8c0.6-1,1.3-1.7,2.2-2.3      C95.2,16.3,96,17,96.5,18z M84.4,25c-0.6-1.1-0.9-2.3-0.9-3.5c0-1.5,0.5-3.1,1.5-4.3c1.2,4.1,5,7.2,9.5,7.2      c0.9,0,1.7-0.1,2.6-0.3c-0.6,1.4-1.6,2.7-3,3.5c-1.1,0.6-2.3,0.9-3.5,0.9C88,28.5,85.7,27.3,84.4,25z M104.4,25      c-1.3,2.3-3.7,3.5-6.1,3.5c-0.3,0-0.6,0-0.8-0.1c1.9-1.9,2.9-4.4,2.9-7c0-1.7-0.4-3.4-1.3-4.9c-0.4-0.7-1-1.4-1.5-2      c0.3,0,0.5-0.1,0.8-0.1c1.2,0,2.4,0.3,3.5,0.9c2.3,1.3,3.5,3.7,3.5,6.1C105.3,22.7,105,23.9,104.4,25z"/>
			</g>
		</g>
	</g>
	<g>
		<path fill="#FFFFFF" d="M3.1,61.9c-1.1,0-2.2-0.2-3-0.4L0.3,60c0.9,0.3,1.9,0.6,2.9,0.6c1.7,0,3.3-0.7,3.3-2.6    c0-3.3-6.4-2-6.4-6.4c0-2.2,1.7-3.8,4.7-3.8c0.8,0,1.7,0.1,2.5,0.3L7,49.4C6.3,49.1,5.4,49,4.6,49c-2,0-3,0.9-3,2.3    c0,3.2,6.5,2.1,6.5,6.4C8.1,60.2,6.2,61.9,3.1,61.9z"/>
		<path fill="#FFFFFF" d="M18.6,56.4h-6.8c-0.1,3,1.1,4.2,3.4,4.2c1,0,2-0.2,2.9-0.6l0.3,1.3c-1,0.4-2.2,0.6-3.5,0.6    c-3,0-4.7-1.7-4.7-5.2c0-3.1,1.6-5.3,4.5-5.3c2.8,0,4,2,4,4.2C18.6,55.7,18.6,56,18.6,56.4z M14.5,52.5c-1.4,0-2.5,1-2.7,2.7H17    C17,53.6,16.1,52.5,14.5,52.5z"/>
		<path fill="#FFFFFF" d="M28.9,56.4h-6.8c-0.1,3,1.1,4.2,3.4,4.2c1,0,2-0.2,2.9-0.6l0.3,1.3c-1,0.4-2.2,0.6-3.5,0.6    c-3,0-4.7-1.7-4.7-5.2c0-3.1,1.6-5.3,4.5-5.3c2.8,0,4,2,4,4.2C29,55.7,29,56,28.9,56.4z M24.9,52.5c-1.4,0-2.5,1-2.7,2.7h5.2    C27.4,53.6,26.5,52.5,24.9,52.5z"/>
		<path fill="#FFFFFF" d="M47,61.7h-1.8L43,55.1c-0.2-0.6-0.4-1.3-0.6-1.9h0c-0.2,0.9-0.5,1.7-0.7,2.6l-1.9,6H38l-3.2-10.2h1.7    l1.7,6.1c0.3,0.9,0.5,1.8,0.7,2.5h0c0.2-0.8,0.4-1.7,0.7-2.5l2-6.1h1.7l2,6.1c0.4,1.3,0.6,1.9,0.7,2.5h0c0.2-0.8,0.4-1.5,0.7-2.5    l1.8-6.1h1.6L47,61.7z"/>
		<path fill="#FFFFFF" d="M59.3,61.7v-6.6c0-1.6-0.4-2.5-1.9-2.5c-1.8,0-3.1,1.8-3.1,4.2v4.9h-1.5V48c-0.5-0.1-1.2-0.2-1.8-0.2v-0.9    c0.9-0.1,2.3-0.2,3.3-0.1v5c0,0.7,0,1.5-0.2,2l0,0c0.6-1.5,1.9-2.5,3.6-2.5c2.3,0,3.1,1.5,3.1,3.3v7.1H59.3z"/>
		<path fill="#FFFFFF" d="M72.1,56.4h-6.8c-0.1,3,1.1,4.2,3.4,4.2c1,0,2-0.2,2.9-0.6l0.3,1.3c-1,0.4-2.2,0.6-3.5,0.6    c-3,0-4.7-1.7-4.7-5.2c0-3.1,1.6-5.3,4.5-5.3c2.8,0,4,2,4,4.2C72.1,55.7,72.1,56,72.1,56.4z M68,52.5c-1.4,0-2.5,1-2.7,2.7h5.2    C70.5,53.6,69.6,52.5,68,52.5z"/>
		<path fill="#FFFFFF" d="M80.4,52.9C78,52.4,77,54.2,77,57.6v4.1h-1.5v-9c-0.5-0.1-1.2-0.2-1.8-0.2v-0.9c0.9-0.1,2.3-0.2,3.3-0.1    c0,0.7-0.1,1.7-0.2,2.6l0,0c0.4-1.5,1.4-3,3.7-2.7L80.4,52.9z"/>
		<path fill="#FFFFFF" d="M90.1,56.4h-6.8c-0.1,3,1.1,4.2,3.4,4.2c1,0,2-0.2,2.9-0.6l0.3,1.3c-1,0.4-2.2,0.6-3.5,0.6    c-3,0-4.7-1.7-4.7-5.2c0-3.1,1.6-5.3,4.5-5.3c2.8,0,4,2,4,4.2C90.1,55.7,90.1,56,90.1,56.4z M86.1,52.5c-1.4,0-2.5,1-2.7,2.7h5.2    C88.6,53.6,87.6,52.5,86.1,52.5z"/>
		<path fill="#FFFFFF" d="M98,61.7v-9c-0.5-0.1-1.2-0.2-1.8-0.2v-0.9c0.9-0.1,2.3-0.2,3.3-0.1v10.2H98z M98.7,49.3c-0.6,0-1-0.5-1-1    c0-0.6,0.5-1,1-1c0.6,0,1.1,0.5,1.1,1C99.8,48.8,99.3,49.3,98.7,49.3z"/>
		<path fill="#FFFFFF" d="M106.3,61.9c-2.1,0-2.6-0.9-2.6-3v-6.1h-2.2v-1.2h2.2v-3.4l1.5-0.4v3.8h3v1.2h-3v5.5    c0,1.8,0.3,2.3,1.5,2.3c0.5,0,1-0.1,1.4-0.2l0.2,1.3C107.7,61.8,106.9,61.9,106.3,61.9z"/>
		<path fill="#FFFFFF" d="M118.8,61.9c-2.1,0-2.6-0.9-2.6-3v-6.1H114v-1.2h2.2v-3.4l1.5-0.4v3.8h3v1.2h-3v5.5c0,1.8,0.3,2.3,1.5,2.3    c0.5,0,1-0.1,1.4-0.2l0.2,1.3C120.2,61.8,119.5,61.9,118.8,61.9z"/>
		<path fill="#FFFFFF" d="M128.8,61.7c0-0.8,0-1.6,0.1-2.2h0c-0.5,1.3-1.8,2.3-3.6,2.3c-1.6,0-2.8-1-2.8-2.7c0-2.1,2.2-3.5,6.2-3.5    V55c0-1.5-0.6-2.4-2.3-2.4c-1,0-2.2,0.3-3,0.8l-0.3-1.3c1-0.4,2.3-0.7,3.6-0.7c2.9,0,3.7,1.4,3.7,3.3v5.8c0.5,0.1,1.2,0.2,1.8,0.2    v0.9C131.2,61.7,129.8,61.8,128.8,61.7z M128.7,56.8c-3.6,0-4.7,1-4.7,2.1c0,1,0.7,1.7,1.7,1.7c1.8,0,3-1.8,3-3.6V56.8z"/>
		<path fill="#FFFFFF" d="M140,61.7l-4-5.4v5.4h-1.5V48c-0.5-0.1-1.2-0.2-1.8-0.2v-0.9c0.9-0.1,2.3-0.2,3.3-0.1v9.4l3.8-4.6h1.9    l-4,4.6l4.4,5.6H140z"/>
		<path fill="#FFFFFF" d="M151.5,56.4h-6.8c-0.1,3,1.1,4.2,3.4,4.2c1,0,2-0.2,2.9-0.6l0.3,1.3c-1,0.4-2.2,0.6-3.5,0.6    c-3,0-4.7-1.7-4.7-5.2c0-3.1,1.6-5.3,4.5-5.3c2.8,0,4,2,4,4.2C151.5,55.7,151.5,56,151.5,56.4z M147.5,52.5c-1.4,0-2.5,1-2.7,2.7    h5.2C150,53.6,149,52.5,147.5,52.5z"/>
		<path fill="#FFFFFF" d="M156,61.9c-0.8,0-1.6-0.1-2.3-0.3l0.2-1.4c0.7,0.2,1.5,0.4,2.3,0.4c1.4,0,2.4-0.7,2.4-1.7    c0-2.5-5-0.9-5-4.6c0-1.7,1.3-3,3.9-3c0.6,0,1.4,0.1,2,0.2l-0.1,1.3c-0.6-0.2-1.3-0.3-2-0.3c-1.5,0-2.2,0.6-2.2,1.6    c0,2.5,5,1,5,4.5C160.2,60.5,158.6,61.9,156,61.9z"/>
		<path fill="#FFFFFF" d="M171,62.7c-1.2,3.2-2.4,4.3-4.7,4.3c-0.3,0-0.8-0.1-1.1-0.1l0.2-1.4c0.3,0.1,0.8,0.1,1.2,0.1    c1.1,0,2-0.6,2.9-2.7l0.5-1.2L166,51.5h1.8l2.1,5.8c0.3,0.9,0.6,1.7,0.8,2.4h0c0.2-0.7,0.6-1.9,1-3.1l1.8-5.2h1.7L171,62.7z"/>
		<path fill="#FFFFFF" d="M180.5,61.9c-2.7,0-4.5-1.7-4.5-5.2c0-2.9,1.8-5.3,4.9-5.3c2.5,0,4.5,1.4,4.5,5.1    C185.4,59.5,183.5,61.9,180.5,61.9z M180.8,52.6c-1.6,0-3.1,1.2-3.1,3.9c0,2.6,1.1,4,3.1,4c1.6,0,3.1-1.2,3.1-4    C183.8,54.1,182.8,52.6,180.8,52.6z"/>
		<path fill="#FFFFFF" d="M195.2,61.7c0-0.7,0.1-1.6,0.2-2.3l0,0c-0.6,1.5-1.9,2.5-3.7,2.5c-2.4,0-3.1-1.5-3.1-3.3v-5.9    c-0.5-0.1-1.2-0.2-1.8-0.2v-0.9c0.9-0.1,2.3-0.2,3.3-0.1v6.6c0,1.6,0.4,2.5,1.9,2.5c1.8,0,3.1-1.8,3.1-4.2v-4.9h1.5v9    c0.5,0.1,1.2,0.2,1.8,0.2v0.9C197.6,61.7,196.2,61.8,195.2,61.7z"/>
		<g>
			<g>
				<path fill="#FFFFFF" d="M201.2,61.9c-0.6,0-1.1-0.5-1.1-1.1c0-0.6,0.5-1.1,1.1-1.1c0.6,0,1.1,0.5,1.1,1.1      C202.3,61.4,201.8,61.9,201.2,61.9z"/>
			</g>
		</g>
	</g>
</g>
</svg>