<?xml version="1.0" encoding="windows-1252"?>
<!-- Generator: Adobe Illustrator 18.0.0, SVG Export Plug-In . SVG Version: 6.00 Build 0)  -->
<!DOCTYPE svg PUBLIC "-//W3C//DTD SVG 1.1//EN" "http://www.w3.org/Graphics/SVG/1.1/DTD/svg11.dtd">
<svg version="1.1" id="Layer_1" xmlns="http://www.w3.org/2000/svg" xmlns:xlink="http://www.w3.org/1999/xlink" x="0px" y="0px" width="1280px" height="293.3px" viewBox="0 2253.6 1280 293.3" enable-background="new 0 2253.6 1280 293.3" xml:space="preserve">
<g>
	<polygon fill="#FFFFFF" points="0,2356.9 33.3,2356.9 33.3,2469.3 65.5,2469.3 65.5,2356.9 98.8,2356.9 98.8,2329.7 0,2329.7  "/>
	<path fill="#FFFFFF" d="M236.9,2372.5c0,12.1-8.6,19.1-22.2,19.1c-3,0-6.6,0-8.1-0.5v-35.8c2,0,5.5-0.5,8.6-0.5   C230.3,2354.4,236.9,2361.4,236.9,2372.5z M280.2,2469.3l-29.2-44.9c-3.5-5-7.1-10.6-10.6-15.6c18.6-4,30.7-20.2,30.7-38.3   c0-29.7-20.2-41.3-52.4-41.3c-17.1,0-31.7,0-43.3,0.5v139.6h31.7v-54.9h1.5l33.3,54.9H280.2z"/>
	<path fill="#FFFFFF" d="M356.3,2469.3v-139.6H388v139.6H356.3L356.3,2469.3z"/>
	<path fill="#FFFFFF" d="M931.8,2469.3l-9.6-58c-2-11.6-3-22.2-4-32.8h-1c-2,10.6-4,20.7-8.1,32.8l-17.1,56.9h-31.2l-16.1-51.9   c-3.5-12.1-7.1-25.7-9.1-37.8l0,0c-1.5,12.6-3,23.7-4,35.8l-7.1,54.9h-32.8l22.2-139.6h36.8l19.1,61c3,10.1,5.5,19.1,7.1,30.7h0.5   c2-11.6,4-20.2,8.1-30.7l20.2-61h36.3l22.2,139.6H931.8z"/>
	<path fill="#FFFFFF" d="M1032.1,2469.3v-139.6h79.1v27.2h-46.4v27.7h43.8v26.2h-43.8v30.7h46.4v27.7   C1110.7,2469.3,1032.1,2469.3,1032.1,2469.3z"/>
	<path fill="#FFFFFF" d="M1246.7,2356.9v112.4h-32.3v-112.4h-33.3v-27.7h98.8v27.7H1246.7z"/>
	<g>
		<path fill="#D14727" d="M743.8,2400.3c0,81.1-65.5,146.6-146.6,146.6s-146.6-65.5-146.6-146.6c1-81.1,66.5-146.6,146.6-146.6    C678.3,2253.6,743.8,2319.1,743.8,2400.3z"/>
	</g>
	<path fill="#FFFFFF" d="M674.8,2358.9c-3.5-39.3-36.3-70.6-76.6-70.6c-39.8,0-73.1,30.7-76.6,69.5c-20.2,15.1-31.2,38.3-31.2,62   c0,12.6,3.5,26.2,10.6,38.3c14.1,24.7,40.3,38.3,67,38.3c10.1,0,20.7-2,29.7-6.6c10.1,4,20.2,6.6,30.7,6.6l0,0   c26.2,0,52.4-14.1,67-38.3c7.1-12.1,10.6-25.7,10.6-38.3C705.5,2397.2,694.9,2373.5,674.8,2358.9z M598.2,2312.6   c22.7,0,41.8,13.6,49.9,33.3c-6.6-1.5-12.6-3-20.2-3c-27.2,0-52.4,13.6-67,38.3c-3,5-5,10.6-6.6,15.6c-6.6-8.6-10.1-20.2-10.1-31.2   C544.3,2336.3,567.9,2312.6,598.2,2312.6z M613.8,2393.7c3.5,7.1,6.6,14.1,7.1,21.2c-7.1,3.5-15.1,5-22.7,5c-8.6,0-16.1-2-23.7-5.5   c0.5-7.1,3-14.1,7.1-20.7c4-7.1,10.1-12.6,16.1-17.6C604.2,2380.1,610.3,2386.6,613.8,2393.7z M520.6,2447.1   c-5-8.6-7.1-17.6-7.1-27.2c0-11.6,3.5-22.7,10.6-32.3c9.1,32.3,39.3,54.9,74.1,54.9c6.6,0,12.6-0.5,19.1-2   c-4,10.6-12.1,20.2-22.7,25.7c-8.6,5-17.6,7.1-27.2,7.1C548.8,2473.8,530.6,2464.8,520.6,2447.1z M674.8,2447.6   c-10.1,17.1-27.7,27.2-46.9,27.2c-1.5,0-3.5,0-5,0c14.1-14.1,22.2-34.3,21.2-53.9c0-12.6-3.5-26.2-10.6-38.3   c-3-5.5-7.1-10.1-11.6-15.1c1.5,0,3.5,0,5,0c9.1,0,18.6,2,27.2,7.1c17.1,10.1,27.2,27.7,27.2,46.9   C681.8,2430,679.8,2439.1,674.8,2447.6z"/>
</g>
</svg>